{"title":"Coffee and Cigarettes-720p MP4 AAC x264 BRRip 2003-CC","uid":7693771,"size":2953352334,"categoryP":"video","categoryS":"hd___movies","magnet":"?xt=urn:btih:5d906d03d84566ffc2b00858224af670e286ec0a&amp;dn=Coffee+and+Cigarettes-720p+MP4+AAC+x264+BRRip+2003-CC&amp;tr=udp%3A%2F%2Ftracker.openbittorrent.com%3A80&amp;tr=udp%3A%2F%2Fopen.demonii.com%3A1337&amp;tr=udp%3A%2F%2Ftracker.coppersurfer.tk%3A6969&amp;tr=udp%3A%2F%2Fexodus.desync.com%3A6969","seeders":7,"leechers":3,"uploader":"Caveman44","files":-1,"time":1349297604,"description":" &lt;a href=&quot;http://www.imdb.com/title/tt0379217/&quot; rel=&quot;nofollow&quot; target=&quot;_NEW&quot;&gt;http://www.imdb.com/title/tt0379217/&lt;/a&gt;\n\nSource: Coffee.and.Cigarettes.2003.720p.BluRay.X264-AMIABLE Thanks!\n\nSubs: Croatian, Danish, Dutch, English, French, Greek, Portuguese and Romanian.\n\nSample and Screens included.\n\nGeneral\nComplete name                            : Coffee and Cigarettes-720p MP4 AAC x264 BRRip 2003-CC.mp4\nFormat                                   : MPEG-4\nFormat profile                           : Base Media\nCodec ID                                 : isom\nFile size                                : 2.72 GiB\nDuration                                 : 1h 36mn\nOverall bit rate mode                    : Variable\nOverall bit rate                         : 4 042 Kbps\nEncoded date                             : UTC 2012-09-26 18:21:58\n\nVideo\nID                                       : 1\nFormat                                   : AVC\nFormat/Info                              : Advanced Video Codec\nFormat profile                           : &lt;a class=&quot;__cf_email__&quot; href=&quot;/cdn-cgi/l/email-protection&quot; data-cfemail=&quot;d69ebfb1be969ae5f8e7&quot;&gt;[email&amp;#160;protected]&lt;/a&gt;&lt;script cf-hash='f9e31' type=&quot;text/javascript&quot;&gt;\n/* &lt;![CDATA[ */!function(){try{var t=&quot;currentScript&quot;in document?document.currentScript:function(){for(var t=document.getElementsByTagName(&quot;script&quot;),e=t.length;e--;)if(t[e].getAttribute(&quot;cf-hash&quot;))return t[e]}();if(t&amp;&amp;t.previousSibling){var e,r,n,i,c=t.previousSibling,a=c.getAttribute(&quot;data-cfemail&quot;);if(a){for(e=&quot;&quot;,r=parseInt(a.substr(0,2),16),n=2;a.length-n;n+=2)i=parseInt(a.substr(n,2),16)^r,e+=String.fromCharCode(i);e=document.createTextNode(e),c.parentNode.replaceChild(e,c)}}}catch(u){}}();/* ]]&gt; */&lt;/script&gt;\nFormat settings, CABAC                   : Yes\nFormat settings, ReFrames                : 5 frames\nCodec ID                                 : avc1\nCodec ID/Info                            : Advanced Video Coding\nDuration                                 : 1h 36mn\nBit rate                                 : 3 804 Kbps\nMaximum bit rate                         : 22.2 Mbps\nWidth                                    : 1 280 pixels\nHeight                                   : 720 pixels\nDisplay aspect ratio                     : 16:9\nFrame rate mode                          : Variable\nFrame rate                               : 23.976 fps\nMinimum frame rate                       : 19.048 fps\nMaximum frame rate                       : 25.000 fps\nColor space                              : YUV\nChroma subsampling                       : 4:2:0\nBit depth                                : 8 bits\nScan type                                : Progressive\nBits/(Pixel*Frame)                       : 0.172\nStream size                              : 2.50 GiB (92%)\nWriting library                          : x264 core 112\n\nAudio\nID                                       : 2\nFormat                                   : AAC\nFormat/Info                              : Advanced Audio Codec\nFormat profile                           : LC\nCodec ID                                 : 40\nDuration                                 : 1h 36mn\nBit rate mode                            : Variable\nBit rate                                 : 320 Kbps\nMaximum bit rate                         : 426 Kbps\nChannel(s)                               : 2 channels\nChannel positions                        : Front: L R\nSampling rate                            : 48.0 KHz\nCompression mode                         : Lossy\nDelay relative to video                  : 83ms\nStream size                              : 221 MiB (8%)\nLanguage                                 : English\n\nEnjoy...\n\nRequested by edodeniro.\n\nComing soon: Batman Begins, The Dark Knight, Down by Law and more...","torrent":{"xt":"urn:btih:5d906d03d84566ffc2b00858224af670e286ec0a","amp;dn":"Coffee+and+Cigarettes-720p+MP4+AAC+x264+BRRip+2003-CC","amp;tr":["udp%3A%2F%2Ftracker.openbittorrent.com%3A80","udp%3A%2F%2Fopen.demonii.com%3A1337","udp%3A%2F%2Ftracker.coppersurfer.tk%3A6969","udp%3A%2F%2Fexodus.desync.com%3A6969"],"infoHash":"5d906d03d84566ffc2b00858224af670e286ec0a","infoHashBuffer":{"type":"Buffer","data":[93,144,109,3,216,69,102,255,194,176,8,88,34,74,246,112,226,134,236,10]},"announce":[],"urlList":[]}}